<svg xmlns="http://www.w3.org/2000/svg" width="344.143" height="325.341" viewBox="0 0 344.143 325.341">
  <g id="Dog_Autumn" transform="translate(-867 -490.659)">
    <ellipse id="Ellipse_114" data-name="Ellipse 114" cx="159" cy="39.5" rx="159" ry="39.5" transform="translate(867 737)" fill="#3B5C45"/>
    <g id="Layer_x0020_1" transform="translate(877 490.659)">
      <path id="Path_1951" data-name="Path 1951" d="M437.13,199.964a16,16,0,0,1,.785,1.4l6.4,13.258A32.353,32.353,0,0,1,446.167,238a30.448,30.448,0,0,1-14.706,18.114,31.108,31.108,0,0,1-8.255,3.047,30.723,30.723,0,0,1-8.712.6,31.248,31.248,0,0,1-15.215-5.318,30.853,30.853,0,0,1-10.5-12.146l-13.253-27.459a10.872,10.872,0,0,1-1.092-4.7l-41.8-86.4c-5.453,2.18-12.184,4.913-19.273,7.892-12.092,5.083-26.219,11.27-39.579,17.717l-1.009.488-1.153.26a425.209,425.209,0,0,0-47.432,13.64l-13.4,4.908-.094-14.308c0-.153-.451-53.235,15.738-75.668,9.956-13.794,21.393-21.082,36.86-30.935,7.4-4.716,15.814-10.076,25.61-17.256l-1.849-5.479a12.567,12.567,0,0,1,22.488-10.792l-.011.006,3.1,4.8c11.525-3.162,21.061-6.45,29.453-9.344C359.378,3.712,372.163-.7,389.19.092c27.7,1.284,68.98,34.668,69.1,34.764L469.3,43.721l-11.995,7.5-.082.042a426.99,426.99,0,0,0-40.183,28.664l-.9.723-1.03.5c-13.013,6.281-26.654,13.5-38.31,19.888-7.045,3.86-13.269,7.361-18.2,10.169l41.748,86.293a10.962,10.962,0,0,1,3.114,3.86l6.357,13.171a16.149,16.149,0,0,1-.793-10.386,15.221,15.221,0,0,1,6.758-9.209,16.08,16.08,0,0,1,1.415-.791,15.491,15.491,0,0,1,19.925,5.828Zm-8.26,5.771a5.47,5.47,0,0,0-7.808-2.273,5.7,5.7,0,0,0-1.906,7.323l6.377,13.209c2.333,4.838.822,10.9-3.852,13.548a10.031,10.031,0,0,1-10.535-.362,10.37,10.37,0,0,1-3.584-4.231l-13.139-27.227a.928.928,0,0,0-1.242-.434l-.173.084-47.519-98.216c10.157-5.9,38.694-22.238,65.258-35.06A437.164,437.164,0,0,1,452,42.682S413.116,11.25,388.757,10.121C364.283,8.988,347.8,20.641,308.163,30.587L301.084,19.64a2.525,2.525,0,0,0-4.513,2.178l4.166,12.351c-32.445,24.844-51.825,30.5-66.163,50.366C220.3,104.307,220.723,154.3,220.723,154.3a437.285,437.285,0,0,1,48.691-13.994c26.685-12.88,57.386-25.113,68.2-29.339l47.513,98.205-.119.057a.93.93,0,0,0-.434,1.243l13.253,27.459A20.993,20.993,0,0,0,426.7,247.27c9.985-5.391,13.495-18.059,8.565-28.277Zm-12.329,23.2,0-.006-.009,0Z" transform="translate(-178.069 0)" fill-rule="evenodd"/>
      <path id="Path_1952" data-name="Path 1952" d="M1168.779,1433.484c1.665,1.471,5.839,4.868,6.116,5.026,2.333,1.333,8.06.45,22.343-11.27a88.726,88.726,0,0,0,21.658-27.408,14.556,14.556,0,0,0-4.191-3.464c-12.4-7.167-15.646-7.128-26.179.014-3.327-1.821-6.229-2.5-9.921-5.226-11.369,7.362-22.034,20.293-26.419,23.323C1156.55,1416.385,1162.237,1428.985,1168.779,1433.484Zm-3.157,10.456c-1.041-.856-2.16-1.79-3-2.521-4.631-3.346-8.173-8.373-11.4-12.952-1.845-2.62-2.572-4.577-3.044-4.783a10.041,10.041,0,0,1-1.691-17.465,77.419,77.419,0,0,0,5.727-5.445c5.472-5.453,12.705-12.661,20.685-17.878a10.041,10.041,0,0,1,11.687.2,18.412,18.412,0,0,0,3.227,1.873c4.577-2.647,8.461-3.979,13.106-3.987,5.894-.009,11.075,2.217,18.824,6.7l0,.009a25.247,25.247,0,0,1,6.433,5.211,10.054,10.054,0,0,1,1.813,11.222c-.025.051-8.32,17.7-24.37,30.87-7.933,6.509-13.766,10.129-18.053,11.985-7.068,3.059-12.106,2.274-15.619.268C1169.37,1446.919,1167.435,1445.429,1165.622,1443.94Z" transform="translate(-965.308 -1167.163)" fill-rule="evenodd"/>
      <path id="Path_1953" data-name="Path 1953" d="M1206.98,1469.228c4.385-3.028,15.049-15.961,26.419-23.323,3.693,2.728,6.594,3.4,9.921,5.226,10.535-7.141,13.78-7.182,26.179-.014.932,14.529-25.343,36.876-39.008,40.061-1.271.3-5.84-2.2-6.918-2.947C1217.033,1483.733,1211.344,1471.133,1206.98,1469.228Z" transform="translate(-1020.102 -1221.911)" fill="#b94f01" fill-rule="evenodd"/>
      <path id="Path_1954" data-name="Path 1954" d="M1360.076,1480.37c-15.483,25.4-36.622,34.281-45.926,37.114,1.664,1.472,5.839,4.871,6.114,5.027,2.333,1.335,8.062.451,22.345-11.27a88.727,88.727,0,0,0,21.658-27.408,14.554,14.554,0,0,0-4.191-3.464Z" transform="translate(-1110.679 -1251.164)" fill="#fdeed4" fill-rule="evenodd"/>
      <path id="Path_1955" data-name="Path 1955" d="M77.393,1422.076a14.544,14.544,0,0,0,4.222-3.423c9.472-10.742,10.073-13.932,5.153-25.668,2.439-2.9,3.676-5.614,7.079-8.7-4.975-12.6-15.548-25.6-17.654-30.5-2.727,3.9-16.2,6.994-21.9,12.518-1.771,1.341-5.927,4.763-6.136,5-1.767,2.025-2.031,7.814,6.641,24.13S77.393,1422.076,77.393,1422.076Zm-32.722-60.943c1.232-1,2.459-1.994,3.208-2.578,4.2-3.81,9.739-6.254,14.788-8.479,2.7-1.19,4.636-1.528,5.187-1.918a10.061,10.061,0,0,1,17.582,1.658,72.5,72.5,0,0,0,4.19,6.689c4.335,6.546,10.081,15.217,13.582,24.087l-.036.014a10.026,10.026,0,0,1-2.6,11.117,18.317,18.317,0,0,0-2.445,2.768c1.7,5.026,2.243,9.1,1.333,13.667-1.112,5.579-4.207,10.141-9.892,16.639l-.245.305a25.866,25.866,0,0,1-6.54,5.442,10.04,10.04,0,0,1-11.369-.406c-.046-.034-15.8-11.711-25.508-29.981-4.806-9.044-7.2-15.477-8.18-20.06-1.6-7.512.187-12.318,2.877-15.4a53.926,53.926,0,0,1,4.067-3.567Z" transform="translate(-31.373 -1135.676)" fill-rule="evenodd"/>
      <path id="Path_1956" data-name="Path 1956" d="M146.693,1408.72c2.1,4.9,12.679,17.9,17.654,30.5-3.4,3.083-4.64,5.794-7.08,8.7,4.922,11.736,4.323,14.926-5.151,25.668-14.427-1.954-31.152-32.121-31.577-46.146-.04-1.305,3.313-5.291,4.253-6.2C130.49,1415.714,143.967,1412.622,146.693,1408.72Z" transform="translate(-101.873 -1190.608)" fill="#b94f01" fill-rule="evenodd"/>
      <path id="Path_1957" data-name="Path 1957" d="M136.429,1541.916c-21.851-20.191-26.383-42.667-27.324-52.346-1.771,1.341-5.927,4.762-6.136,5-1.767,2.025-2.031,7.814,6.641,24.129s22.6,26.638,22.6,26.638A14.537,14.537,0,0,0,136.429,1541.916Z" transform="translate(-86.187 -1258.94)" fill="#fdeed4" fill-rule="evenodd"/>
      <path id="Path_1958" data-name="Path 1958" d="M337.664,1545.343a25.994,25.994,0,0,0,2.386,3.4,17.739,17.739,0,0,0,3.208,3.049,11.315,11.315,0,0,0,1.047.675c.266.148.437.227.506.263a.2.2,0,0,1-.181.362c-.06-.031-.249-.118-.525-.272a16.338,16.338,0,0,1-4.366-3.818,26.356,26.356,0,0,1-2.423-3.453.2.2,0,0,1,.348-.207Z" transform="translate(-285.063 -1305.994)" fill="#352125" fill-rule="evenodd"/>
      <path id="Path_1959" data-name="Path 1959" d="M293.694,1585.216a25.751,25.751,0,0,0,2.386,3.4,17.746,17.746,0,0,0,3.208,3.049,11.236,11.236,0,0,0,1.047.675c.266.15.435.229.506.263a.2.2,0,0,1-.181.364c-.06-.031-.249-.118-.525-.274a16.318,16.318,0,0,1-4.366-3.816,26.412,26.412,0,0,1-2.423-3.454.2.2,0,1,1,.348-.206Z" transform="translate(-247.901 -1339.693)" fill="#352125" fill-rule="evenodd"/>
      <path id="Path_1960" data-name="Path 1960" d="M316.369,1565.976a17.5,17.5,0,0,0,2.047,3.07,16.941,16.941,0,0,0,4.687,3.881.2.2,0,1,1-.2.352,17.348,17.348,0,0,1-4.8-3.973,17.9,17.9,0,0,1-2.095-3.142.2.2,0,0,1,.085-.274A.2.2,0,0,1,316.369,1565.976Z" transform="translate(-267.062 -1323.424)" fill="#352125" fill-rule="evenodd"/>
      <path id="Path_1961" data-name="Path 1961" d="M292.812,1622.384c-2.169-14.158-4.231-16.663-16.393-20.411-.663-3.733-1.951-6.419-2.134-11.009-12.857-4.259-29.619-4.484-34.725-6.007,1.246,4.594-5.021,16.917-4.437,24.833-.105,2.22-.144,7.6-.094,7.917.42,2.654,4.694,6.569,22.774,10.374a88.719,88.719,0,0,0,34.931-.26A14.555,14.555,0,0,0,292.812,1622.384Zm-67.82-8.516c.017-1.4.042-2.818.073-3.812-.3-5.61,1.426-11.606,3-17.061.879-3.049,1.89-5,1.782-5.4l.011,0a10.055,10.055,0,0,1,12.575-12.269,74.451,74.451,0,0,0,7.813,1.064c7.8.868,18.126,2.021,27.188,5.022l-.006.022a10.041,10.041,0,0,1,6.89,9.143,18.524,18.524,0,0,0,.582,3.692c4.921,1.914,8.384,4.108,11.293,7.719,3.657,4.541,5.174,9.9,6.518,18.55l.016.082a25.91,25.91,0,0,1,.017,8.206,10.06,10.06,0,0,1-7.726,8.793c-.054.012-18.956,4.574-39.259.3-10.078-2.121-16.544-4.4-20.645-6.563-6.812-3.6-9.358-8.045-9.994-12.07l.006,0-.006-.039C225.015,1618.6,224.966,1616.183,224.992,1613.869Z" transform="translate(-190.149 -1331.058)" fill-rule="evenodd"/>
      <path id="Path_1962" data-name="Path 1962" d="M948.492,1551.13c1.008.107,4.1-.121,7.91-.4,7.755-.568,18.028-1.322,27.6-.014a10.047,10.047,0,0,1,8.5,7.948,18.9,18.9,0,0,0,1.191,3.29c5.179.978,8.983,2.5,12.507,5.524,4.428,3.795,6.9,8.815,9.826,17.147a25.806,25.806,0,0,1,1.55,9.486,10.046,10.046,0,0,1-5.981,8.608l0,.006c-.051.023-17.785,7.96-38.54,7.477-10.355-.24-17.127-1.288-21.527-2.658-7.356-2.29-10.677-6.206-12.044-10.056-.221-.624-.722-3.018-1.121-5.315-.2-1.178-.433-2.587-.618-3.861-1.3-5.5-.706-11.614-.167-17.185.308-3.191,1.006-5.207.8-5.642a10.048,10.048,0,0,1,10.109-14.356Zm38.289,19.97c12.642,1.457,15.13,3.544,19.854,17.064a14.551,14.551,0,0,1,.918,5.359s-15.822,7.083-34.293,6.653-23.39-3.5-24.288-6.031c-.107-.3-1.056-5.6-1.356-7.8-2.025-7.675,1.881-20.938-.186-25.227,5.3.564,21.818-2.285,35.238-.452,1.02,4.478,2.779,6.884,4.114,10.432Z" transform="translate(-791.899 -1310.008)" fill-rule="evenodd"/>
      <path id="Path_1963" data-name="Path 1963" d="M252.176,774.9l3.521,10.03c1.387-1.28,18.567-10.457,21.874-12.27,3.522-2.028,7.469-4.162,10.885-6.188,4.374-2.347,7.9-3.522,6.935-10.031-5.122-2.987-6.082-1.6-11.524,1.175C275.865,761.993,257.939,773.091,252.176,774.9Zm-13.063-17.84c10.669-.214,17.545-7.876,23.413-15.345,3.307-4.162,7.255-3.521,11.1-8.11A90.34,90.34,0,0,0,281.2,722.94c16.113-25.716,1.708-35.213-21.127-41.936-8.217-2.454-5.122-4.481-10.457-8.856-9.177-7.362-26.676-14.724-40.44-15.472-26.143-1.387-39.161,9.818-49.084,25.076l-8.643,10.669c-6.83,9.07-9.925,13.018-14.726,23.689-6.723,14.618-.107,9.391-6.189,11.738-10.35,4.055-55.7,3.628-70.745,4.055-20.808.426-43.749,10.776-54.525,20.167C-3.059,759.325-4.766,783.014,25,777.038l10.885-2.775c2.24-.319,1.387-.212,2.561.32-6.379,33.118,5.335,31.732,6.794,43.854-5.976,11.312,1.849,30.625,18.815,35.108,18.993,5.015,47.056,1.174,33.824-20.594-3.521-4.589-6.189-5.442-9.6-6.509,18.033,1.815,34.358-5.442,37.56-11.417,15.152,2.454,9.923,3.521,27.636,3.307l.427,8.643c2.24,8.11-2.028,17.714,20.487,23.049,15.045,3.628,26.462.533,32.225-4.269,9.284-7.9,2.775-25.609-10.671-29.45h0l.107.107c1.387-5.015,3.51-3.258,10.767-7.1,11.783-27.272,3.066-75.747,32.3-52.249Zm-31.494,4.894c-1.042,20.151-3.7,30.2-10.558,35.51-7.469.641-6.881,5.284-8.8,12.007a134.156,134.156,0,0,0-4.269,16.859h7.789c-.96,2.24-1.494,2.027-4.374,3.628-2.242,1.281-1.815,5.442-3.841,6.829-3.522,2.668-7.15.746-9.39,4.374-10.457-5.761-6.4-13.444-9.923-36.706-7.9.427-14.833,2.24-23.368,1.067-6.936-.96-17.284-3.628-25.607-4.162l.35,2.3c-2.24,5.335-4.727,11.038-10.275,13.706-4.908,2.24-11.524,1.6-16.753,0l-4.589-2.561c-2.988,3.841-6.723,5.761-8.215,10.883l-20.061-4.481c-13.724-41.137-5.387-33.714,6.3-65.73-24.115,1.494-36.171,11.631-49.83,9.923,1.708-7.576,18.779-14.085,25.716-16.646,16.432-5.975,55.166-4.267,75.653-5.441,14.405-.748,21.767-5.017,33.4-6.936,13.552,13.551,23.8,32.118,45.455,18.46,23.582-14.833-4.908-40.014-.639-52.925,6.936-21.554-7.789-20.167-21.233-13.018,8.322-17.287,29.023-24.542,53.031-16.539,6.083,2.134,7.9,3.948,12.592,6.616,7.788,4.374,5.013,2.987,9.709,9.5,2.561,3.416,21.126,7.362,26.676,11.1-7.15.853-19.634,2.561-20.167,11.31,11.1,4.8,17.606,3.307,22.3-7.683.32,8.322-7.789,19.1-11.95,22.621-3.2,2.775-3.2,1.6-6.4,3.309-4.589,2.454-1.175.319-4.055,4.481-13.978,20.914-22.941-.107-35.213,8.324-8.7,5.9-13.854,26.912-9.451,20.026Z" transform="translate(0 -554.905)" fill-rule="evenodd"/>
      <path id="Path_1964" data-name="Path 1964" d="M291.547,802.236c-7.576-.853-7.469-10.457-7.255-18.247,3.521.534,9.07,4.055,13.337,5.763,3.841,1.387,10.031,2.775,12.8,5.334-3.841,2.775-11.843,8.11-18.779,7.257h0Zm-10.99-41.081c3.948,0,5.122,3.414,3.2,7.789C278.636,768.517,277.035,764.464,280.557,761.155Zm17.819-6.3c5.015-1.28,6.509,2.775,3.841,7.042C297.2,761.155,296.882,759.022,298.376,754.86Zm-178.3,134.233,4.694,17.606c.96,7.79,5.442,6.83,14.726,8.965,26.248,5.975,20.38-24.221.319-13.978,1.494-5.23,7.576-14.726,10.671-18.567,14.3-19.313,9.923-13.075,33.292-13.075l2.418.276c8.322.533,14.227,2.556,21.164,3.516,8.536,1.068,6.9,1.219,14.794.791,13.2,7.611,7.933,29.086,18.5,34.849,33.612,9.5,32.332-21.449,9.925-14.833a134.433,134.433,0,0,1,4.267-16.859c2.028-6.723,2.242-10.457,9.711-11.1,13.167,2.99,9.065-49.244,19.1-56.234,12.272-8.429,21.235,12.592,35.213-8.322,2.88-4.162-.427-2.134,4.053-4.481,3.2-1.6,3.2-.534,6.4-3.309,4.269-3.521,12.272-14.192,11.951-22.621-4.694,10.99-11.2,12.591-22.3,7.683.639-8.856,13.017-10.457,20.167-11.31-5.656-3.736-24.115-7.684-26.676-11.1-4.7-6.509-2.028-5.015-9.711-9.5-4.694-2.668-6.509-4.482-12.591-6.616-24.008-8-44.6-.748-53.031,16.539,13.551-7.148,28.277-8.644,21.233,13.018-4.269,12.911,24.115,37.986.639,52.924-21.554,13.659-31.9-4.908-45.455-18.459-11.738,1.92-18.993,6.189-33.4,6.935-20.487,1.067-59.221-.533-75.653,5.442-6.83,2.561-24.008,9.07-25.716,16.646C92.437,835.741,104.5,825.6,128.61,824c-13.23,13.125-23.262,27.21-8.536,65.409h0v-.321Z" transform="translate(-66.581 -623.424)" fill="#fff" fill-rule="evenodd"/>
      <path id="Path_1965" data-name="Path 1965" d="M1789.233,1149.248c-.321-7.043,2.134-2.561,6.936-8,3.307-3.841,1.706-5.549,5.975-7.789,5.015,5.549-6.188,15.472-12.911,15.9h0Zm-20.914.96c1.387,5.547,5.763,15.791,12.911,12.27,22.515-10.883,33.292-19.1,33.719-49.937-28.383-14.938-37.667-10.562-62.848,5.763-.32,5.015,3.628,12.484,7.469,15.791,5.763-3.307,16.432-10.244,20.487-1.067,5.015,10.671-6.828,13.018-11.736,17.287h0Z" transform="translate(-1480.806 -932.555)" fill-rule="evenodd"/>
      <path id="Path_1966" data-name="Path 1966" d="M1434.289,1050.207c-2.775-2.559-8.963-3.84-12.8-5.334-4.267-1.6-9.923-5.229-13.337-5.763-.107,7.789-.321,17.394,7.255,18.247,6.935.853,15.045-4.482,18.779-7.255h0Z" transform="translate(-1190.098 -878.225)" fill-rule="evenodd"/>
      <path id="Path_1967" data-name="Path 1967" d="M1991.872,1312.759c6.723-.427,17.926-10.35,12.911-15.9-4.269,2.347-2.561,3.948-5.975,7.79-4.91,5.549-7.257.96-6.937,8h0Z" transform="translate(-1683.445 -1096.067)" fill="#fff" fill-rule="evenodd"/>
      <path id="Path_1968" data-name="Path 1968" d="M1374.425,892.32c-3.521,3.307-2.027,7.362,3.2,7.789C1379.654,895.734,1378.374,892.32,1374.425,892.32Z" transform="translate(-1160.005 -754.162)" fill-rule="evenodd"/>
      <path id="Path_1969" data-name="Path 1969" d="M1495.692,850.349c-1.492,4.162-1.172,6.3,3.843,7.042C1502.308,853.123,1500.709,849.068,1495.692,850.349Z" transform="translate(-1263.452 -718.486)" fill-rule="evenodd"/>
      <path id="Path_1970" data-name="Path 1970" d="M358.818,86.417c42.628-10.144,59.388-22.638,84.689-21.466,24.359,1.129,63.239,32.561,63.239,32.561a437.058,437.058,0,0,0-41.25,29.413c-33.028,15.941-69.116,37.319-69.116,37.319s-39.187,14.955-72.216,30.9a437.283,437.283,0,0,0-48.691,13.994s-.418-50,13.851-69.768c14.822-20.538,35.032-25.886,69.494-52.949Z" transform="translate(-232.819 -54.83)" fill="#1f6b6f" fill-rule="evenodd"/>
      <path id="Path_1971" data-name="Path 1971" d="M275.48,518.259Zm0,0c.077-.057,13.188-9.584,47.174-20.287,0,0,.006,0,.011-.008q.68,3.107,1.506,6.3A437.211,437.211,0,0,0,275.48,518.259Zm144.2-68.843c-.04-.167-.082-.336-.132-.5a356.405,356.405,0,0,1,41.7-18.279v0q2.141,2.617,4.258,5.421c-8.93,4.312-18.089,9.02-26.693,13.6a42.665,42.665,0,0,0-6.538-.992,48.835,48.835,0,0,0-12.591.76Z" transform="translate(-232.826 -363.955)" fill="#3B5C45" fill-rule="evenodd"/>
      <path id="Path_1972" data-name="Path 1972" d="M275.48,413.7Zm2.265-33c1.867-13.466,5.269-27.888,11.46-36.6C283.014,352.818,279.612,367.24,277.745,380.706Zm11.586-36.771c11.347-15.721,25.847-22.54,47.485-37.015C315.18,321.395,300.677,328.214,289.331,343.935Z" transform="translate(-232.826 -259.399)" fill="#b3ab89" fill-rule="evenodd"/>
      <path id="Path_1973" data-name="Path 1973" d="M275.48,500.054h0c.062-.081,10.058-12.927,44.04-23.632q1.089-.678,2.186-1.349.439,2.315.958,4.685l-.011.008C288.668,490.47,275.557,500,275.48,500.054Zm144.071-69.348a13.763,13.763,0,0,0-1.671-3.665,380.5,380.5,0,0,1,40.539-17.951q1.41,1.63,2.81,3.341l.016-.006A356.411,356.411,0,0,0,419.551,430.706Z" transform="translate(-232.826 -345.75)" fill="#224648" fill-rule="evenodd"/>
      <path id="Path_1974" data-name="Path 1974" d="M596.736,204.01,634.3,281.837s-39.187,14.955-72.216,30.9c-7.413-28.64-5.843-52.325-1.071-63.759C564.882,239.706,581.628,220.572,596.736,204.01Z" transform="translate(-470.737 -172.423)" fill="#56bbbd" fill-rule="evenodd"/>
      <path id="Path_1975" data-name="Path 1975" d="M813.78,86.417c42.628-10.144,59.388-22.638,84.689-21.466,24.359,1.129,63.239,32.561,63.239,32.561a437.049,437.049,0,0,0-41.25,29.413c-17.81-23.621-37.329-37.127-49.25-40.5C861.543,83.684,836.145,84.893,813.78,86.417Z" transform="translate(-687.781 -54.83)" fill="#768c54" fill-rule="evenodd"/>
      <path id="Path_1976" data-name="Path 1976" d="M576.5,700.007q-.829-3.2-1.506-6.3-.52-2.371-.958-4.685l.012-.006q.439,2.313.957,4.684c24.638-15.358,51.964-26.858,63.587-31.468a37.31,37.31,0,0,0-8.517,14.272C615.672,682.358,595.111,691.027,576.5,700.007Z" transform="translate(-485.16 -559.697)" fill="#1f6b6f" fill-rule="evenodd"/>
      <path id="Path_1977" data-name="Path 1977" d="M1479.539,305.083q-2.116-2.8-4.26-5.419c29.614-20.009,45.508-23.994,45.508-23.994h0s-3.23,1.973-8.526,5.492C1504.547,286.288,1492.443,294.7,1479.539,305.083Z" transform="translate(-1246.861 -232.988)" fill="#56bbbd" fill-rule="evenodd"/>
      <path id="Path_1978" data-name="Path 1978" d="M575.077,669.526q-.52-2.369-.957-4.684c25.491-15.55,54.02-27.183,64.409-31.212l1.482,3.072q-.7.671-1.347,1.356C627.041,642.667,599.715,654.168,575.077,669.526Z" transform="translate(-485.228 -535.525)" fill="#224648" fill-rule="evenodd"/>
      <path id="Path_1979" data-name="Path 1979" d="M1459.84,412.4q-1.4-1.712-2.81-3.341l.017-.006q1.407,1.63,2.809,3.343v0Z" transform="translate(-1231.437 -345.717)" fill="#4a6130" fill-rule="evenodd"/>
      <path id="Path_1980" data-name="Path 1980" d="M1399.253,78.178c-.156-.09-.316-.18-.472-.271h0l.472.271Zm-5.77-3.165c-9.287-4.854-18.993-8.7-27.173-9.313h0c8.18.605,17.886,4.461,27.173,9.313Z" transform="translate(-1154.763 -55.527)" fill="#83845b" fill-rule="evenodd"/>
      <path id="Path_1981" data-name="Path 1981" d="M1577.014,149.033c-.012-.008-.051-.039-.113-.088a254.063,254.063,0,0,0-29.32-19.939h0a253.262,253.262,0,0,1,29.433,20.029Zm-29.906-20.3c-1.743-.991-3.511-1.96-5.3-2.894h0c1.787.934,3.555,1.9,5.3,2.894Z" transform="translate(-1303.09 -106.356)" fill="#807f56" fill-rule="evenodd"/>
      <path id="Path_1982" data-name="Path 1982" d="M1459.949,299.662h0q-1.4-1.714-2.809-3.341c.807-.3,1.609-.587,2.415-.873v0c29.614-20.006,45.9-19.776,45.9-19.776S1489.563,279.655,1459.949,299.662Z" transform="translate(-1231.53 -232.987)" fill="#224648" fill-rule="evenodd"/>
      <path id="Path_1983" data-name="Path 1983" d="M1038.395,681a20.012,20.012,0,0,1-5.114-1.068,19.761,19.761,0,0,1-11.357-10.13L948.4,517.827a4.378,4.378,0,0,1,7.885-3.8L1029.81,666a11.13,11.13,0,0,0,20.047-9.675l-6.74-13.967a4.377,4.377,0,0,1,7.884-3.8l6.741,13.964A19.9,19.9,0,0,1,1038.395,681Z" transform="translate(-801.187 -432.342)" fill="#c8c8c8" fill-rule="evenodd"/>
      <path id="Path_1984" data-name="Path 1984" d="M1377.509,1311.886a5.469,5.469,0,0,0-7.808-2.273,5.7,5.7,0,0,0-1.9,7.323l6.376,13.209c2.335,4.838.822,10.9-3.851,13.548a10.031,10.031,0,0,1-10.535-.362,10.345,10.345,0,0,1-3.584-4.231l-13.141-27.227a.926.926,0,0,0-1.24-.434l-8.178,3.947a.93.93,0,0,0-.433,1.243l13.253,27.459a20.993,20.993,0,0,0,28.879,9.333c9.983-5.391,13.495-18.059,8.565-28.277Z" transform="translate(-1126.71 -1106.151)" fill="#3B5C45" fill-rule="evenodd"/>
      <path id="Path_1985" data-name="Path 1985" d="M777.7,133.773l-8.03,3.875-5.032-14.918a2.525,2.525,0,0,1,4.513-2.178Z" transform="translate(-646.133 -100.911)" fill="#4d4d4d" fill-rule="evenodd"/>
      <path id="Path_1986" data-name="Path 1986" d="M460.845,117.288c29.614-20.006,45.9-19.776,45.9-19.776S467.866,66.08,443.507,64.951c-25.3-1.172-42.061,11.321-84.69,21.466-34.46,27.063-54.67,32.411-69.492,52.949-14.269,19.772-13.851,69.768-13.851,69.768s9.951-12.894,44.04-23.632c32.35-20.168,70.667-34.106,70.667-34.106S424.929,130.07,460.845,117.288Z" transform="translate(-232.819 -54.83)" fill="#53b5b7" fill-rule="evenodd"/>
      <path id="Path_1987" data-name="Path 1987" d="M358.818,204.01c-34.462,27.063-54.672,32.411-69.494,52.949-14.269,19.772-13.851,69.768-13.851,69.768s9.951-12.894,44.04-23.632c-7.413-28.64-1.573-44.825,3.58-54.121C329.341,237.7,343.71,220.572,358.818,204.01Z" transform="translate(-232.819 -172.423)" fill="#42a2a8" fill-rule="evenodd"/>
      <path id="Path_1988" data-name="Path 1988" d="M813.78,196.521,845.142,261.5s34.748-21.326,70.664-34.106c-17.81-23.622-34.115-29.12-44.6-30.868-12.71-2.118-35.063-1.528-57.428,0Z" transform="translate(-687.781 -164.934)" fill="#42a2a8" fill-rule="evenodd"/>
      <path id="Path_1989" data-name="Path 1989" d="M294.687,1639.86c5.106,1.523,21.868,1.748,34.725,6.007.183,4.589,1.471,7.275,2.134,11.009,12.162,3.748,14.224,6.254,16.393,20.411-10.748,9.819-44.622,3.31-55.658-5.354-1.027-.806-1.935-5.936-2.031-7.24C289.666,1656.777,295.934,1644.454,294.687,1639.86Z" transform="translate(-245.277 -1385.961)" fill="#ff6d01" fill-rule="evenodd"/>
      <path id="Path_1990" data-name="Path 1990" d="M347.517,1812.844c-29.5,3.823-49.656-7.11-57.69-12.594-.105,2.22-.144,7.6-.094,7.916.42,2.654,4.694,6.57,22.774,10.374a88.717,88.717,0,0,0,34.931-.26A14.554,14.554,0,0,0,347.517,1812.844Z" transform="translate(-244.854 -1521.518)" fill="#fdeed4" fill-rule="evenodd"/>
      <path id="Path_1991" data-name="Path 1991" d="M1002.247,1613.29c5.3.563,22.749-1.058,34.161-1.57,1.019,4.478,3.855,8,5.19,11.55,12.642,1.457,15.13,3.544,19.854,17.064-8.77,11.621-43.262,11.425-55.7,4.928-1.157-.605-2.988-5.481-3.321-6.746C1000.408,1630.841,1004.314,1617.579,1002.247,1613.29Z" transform="translate(-846.716 -1362.177)" fill="#ff6d01" fill-rule="evenodd"/>
      <path id="Path_1992" data-name="Path 1992" d="M1064.731,1786.608c-28.306,9.16-50.118,2.1-59.021-1.818.3,2.2,1.25,7.5,1.356,7.8.9,2.533,5.817,5.6,24.29,6.031s34.293-6.653,34.293-6.653A14.554,14.554,0,0,0,1064.731,1786.608Z" transform="translate(-849.995 -1508.451)" fill="#fdeed4" fill-rule="evenodd"/>
      <path id="Path_1993" data-name="Path 1993" d="M455.317,1685.064a26.056,26.056,0,0,0,4.139.348,17.751,17.751,0,0,0,4.4-.506,11.289,11.289,0,0,0,1.189-.37c.286-.108.455-.189.528-.22a.2.2,0,0,1,.266.1.2.2,0,0,1-.1.268c-.062.026-.251.115-.547.226a16.272,16.272,0,0,1-5.729.9,26.342,26.342,0,0,1-4.2-.354.2.2,0,1,1,.065-.4Z" transform="translate(-384.62 -1423.519)" fill="#352125" fill-rule="evenodd"/>
      <path id="Path_1994" data-name="Path 1994" d="M457.727,1744.373a25.876,25.876,0,0,0,4.139.35,17.751,17.751,0,0,0,4.4-.506,10.894,10.894,0,0,0,1.188-.372c.286-.107.455-.187.528-.218a.2.2,0,0,1,.163.37c-.062.028-.251.116-.547.228a16.28,16.28,0,0,1-5.729.9,26.314,26.314,0,0,1-4.2-.354.2.2,0,0,1,.065-.4Z" transform="translate(-386.657 -1473.646)" fill="#352125" fill-rule="evenodd"/>
      <path id="Path_1995" data-name="Path 1995" d="M457.5,1714.88a17.413,17.413,0,0,0,3.668.4,16.961,16.961,0,0,0,5.983-1.107.2.2,0,0,1,.142.379,17.361,17.361,0,0,1-6.125,1.133,17.865,17.865,0,0,1-3.753-.407.2.2,0,1,1,.085-.4Z" transform="translate(-386.454 -1448.755)" fill="#352125" fill-rule="evenodd"/>
      <path id="Path_1996" data-name="Path 1996" d="M1144.179,1630.826a25.9,25.9,0,0,0,4.139.35,17.728,17.728,0,0,0,4.4-.508,11.466,11.466,0,0,0,1.189-.37c.286-.108.455-.187.528-.22a.2.2,0,1,1,.161.372c-.06.026-.249.116-.547.228a16.317,16.317,0,0,1-5.729.9,26.345,26.345,0,0,1-4.2-.355.2.2,0,1,1,.065-.4Z" transform="translate(-966.826 -1377.679)" fill="#352125" fill-rule="evenodd"/>
      <path id="Path_1997" data-name="Path 1997" d="M1146.589,1690.134a25.91,25.91,0,0,0,4.14.35,17.818,17.818,0,0,0,4.4-.508,11.507,11.507,0,0,0,1.189-.37c.286-.108.455-.189.526-.22a.2.2,0,1,1,.163.372c-.062.026-.249.116-.547.228a16.274,16.274,0,0,1-5.727.9,26.344,26.344,0,0,1-4.205-.354.2.2,0,1,1,.065-.4Z" transform="translate(-968.863 -1427.805)" fill="#352125" fill-rule="evenodd"/>
      <path id="Path_1998" data-name="Path 1998" d="M1146.365,1660.641a17.412,17.412,0,0,0,3.67.4,16.924,16.924,0,0,0,5.983-1.107.2.2,0,0,1,.26.119.2.2,0,0,1-.118.26,17.373,17.373,0,0,1-6.125,1.134,17.854,17.854,0,0,1-3.753-.407.2.2,0,0,1,.084-.4Z" transform="translate(-968.666 -1402.914)" fill="#352125" fill-rule="evenodd"/>
      <path id="Path_1999" data-name="Path 1999" d="M907.826,887.18c13.552,13.551,23.8,32.118,45.455,18.46,23.582-14.833-4.908-40.014-.64-52.926,6.936-21.554-7.789-20.167-21.233-13.018l-30.481,25.38C899.35,871.074,900.076,877.863,907.826,887.18Z" transform="translate(-760.86 -705.701)" fill-rule="evenodd"/>
      <path id="Path_2000" data-name="Path 2000" d="M540.8,1600.308l4.588,2.561c5.122,1.6,11.844,2.24,16.753,0,7.469-3.521,12.3-10.24,14.54-15.574a12.744,12.744,0,0,0-2.775-.534c-23.368,0-18.809-5.766-33.106,13.548Z" transform="translate(-457.067 -1340.402)" fill="#cccacb" fill-rule="evenodd"/>
    </g>
  </g>
</svg>
